<svg width="24" height="24" viewBox="0 0 24 24" fill="none" xmlns="http://www.w3.org/2000/svg">
<rect width="24" height="24" rx="12" fill="#FF5805"/>
<path d="M13.0098 7.04656L14.0365 9.0999C14.1765 9.38573 14.5498 9.6599 14.8648 9.7124L16.7257 10.0216C17.9157 10.2199 18.1957 11.0832 17.3382 11.9349L15.8915 13.3816C15.6465 13.6266 15.5123 14.0991 15.5882 14.4374L16.0023 16.2282C16.329 17.6457 15.5765 18.1941 14.3223 17.4532L12.5782 16.4207C12.2632 16.2341 11.744 16.2341 11.4232 16.4207L9.67901 17.4532C8.43068 18.1941 7.67235 17.6399 7.99901 16.2282L8.41318 14.4374C8.48901 14.0991 8.35485 13.6266 8.10985 13.3816L6.66318 11.9349C5.81151 11.0832 6.08568 10.2199 7.27568 10.0216L9.13651 9.7124C9.44568 9.6599 9.81901 9.38573 9.95901 9.0999L10.9857 7.04656C11.5457 5.9324 12.4557 5.9324 13.0098 7.04656Z" fill="white"/>
</svg>
