<svg width="22" height="22" viewBox="0 0 22 22" fill="none" xmlns="http://www.w3.org/2000/svg">
<path fill-rule="evenodd" clip-rule="evenodd" d="M18.7106 3.19708C16.6517 1.13652 13.9136 0.00115817 10.9965 0C4.9858 0 0.0938414 4.89009 0.091436 10.9008C0.0906342 12.8222 0.592805 14.6977 1.54705 16.3508L0 22L5.78093 20.4841C7.37368 21.3525 9.167 21.8102 10.9921 21.811H10.9966C17.0067 21.811 21.8991 16.9203 21.9015 10.9095C21.9027 7.99663 20.7695 5.25765 18.7106 3.19708ZM10.9966 19.9698H10.9929C9.36654 19.9691 7.77132 19.5324 6.37973 18.7068L6.04874 18.5104L2.6183 19.41L3.53396 16.0664L3.31842 15.7236C2.41113 14.2809 1.93192 12.6135 1.93263 10.9015C1.93462 5.90563 6.00066 1.84119 11.0002 1.84119C13.4211 1.84211 15.6969 2.78584 17.4081 4.49851C19.1194 6.21118 20.0613 8.48772 20.0604 10.9088C20.0583 15.905 15.9923 19.9698 10.9966 19.9698ZM15.9683 13.1837C15.6958 13.0473 14.3562 12.3883 14.1064 12.2974C13.8566 12.2065 13.675 12.1611 13.4933 12.4338C13.3117 12.7065 12.7895 13.32 12.6305 13.5018C12.4716 13.6836 12.3127 13.7063 12.0402 13.57C11.7677 13.4336 10.8898 13.146 9.84899 12.218C9.03901 11.4958 8.49212 10.6037 8.33318 10.331C8.17424 10.0583 8.31628 9.91088 8.45268 9.7751C8.57524 9.65305 8.72515 9.45696 8.86139 9.29788C8.99761 9.13882 9.04302 9.0252 9.13383 8.84343C9.22467 8.66163 9.17927 8.50254 9.11114 8.3662C9.04302 8.22987 8.49812 6.88912 8.27102 6.34374C8.04987 5.81259 7.82522 5.88445 7.65797 5.87614C7.49921 5.86824 7.31738 5.86655 7.13575 5.86655C6.9541 5.86655 6.65891 5.93473 6.40913 6.2074C6.15938 6.48011 5.45551 7.13911 5.45551 8.47982C5.45551 9.82054 6.43185 11.1158 6.5681 11.2976C6.70432 11.4794 8.48944 14.2308 11.2228 15.4106C11.8729 15.6913 12.3804 15.8588 12.7761 15.9845C13.4289 16.1917 14.0229 16.1625 14.4924 16.0924C15.0159 16.0142 16.1045 15.4334 16.3316 14.7971C16.5586 14.1608 16.5586 13.6154 16.4905 13.5018C16.4224 13.3882 16.2407 13.32 15.9683 13.1837Z" fill="#FF5805"/>
</svg>
